# xmcd
#
# Track frame offsets:
#	150
#	20820
#	41413
#	60443
#	79265
#	96268
#	111088
#	134200
#	154580
#	171968
#	184098
#	193498
#	207938
#	223820
#
# Disc length: 3193 seconds
#
# Revision: 4
# Processed by: cddbd v1.5.2PL0 Copyright (c) Steve Scherf et al.
# Submitted via: audiograbber 1.83.01
#
DISCID=d30c770e
DTITLE=Candye Kane - Diva La Grande
DYEAR=1997
DGENRE=Blues
TTITLE0=You Need A Great Big Woman
TTITLE1=Love 'Em and Forgive 'Em
TTITLE2=Freak Lover
TTITLE3=I Got A Feelin'
TTITLE4=I Left My Heart In Texas
TTITLE5=The Lord Was A Woman
TTITLE6=It Should Be Rainin'
TTITLE7=These Boots Are Made For Walkin'
TTITLE8=Gifted In The Ways Of Love
TTITLE9=I'm In Love With A Girl
TTITLE10=Homewrecker
TTITLE11=Beehive (Instrumental)
TTITLE12=All You Can Eat (And You Can Eat It All Night Long)
TTITLE13=That Ain't It
EXTD=
EXTT0=
EXTT1=
EXTT2=
EXTT3=
EXTT4=
EXTT5=
EXTT6=
EXTT7=
EXTT8=
EXTT9=
EXTT10=
EXTT11=
EXTT12=
EXTT13=
PLAYORDER=
